<?xml version="1.0" encoding="utf-8"?>
<!-- Generator: Adobe Illustrator 24.3.0, SVG Export Plug-In . SVG Version: 6.00 Build 0)  -->
<svg version="1.1" id="Layer_1" xmlns="http://www.w3.org/2000/svg" xmlns:xlink="http://www.w3.org/1999/xlink" x="0px" y="0px"
	 viewBox="0 0 646 646" style="enable-background:new 0 0 646 646;" xml:space="preserve">
<style type="text/css">
	.st0{fill:#231F20;}
	.st1{fill:#FFFFFF;}
</style>
<g>
	<path class="st0" d="M435.41,311.09c0,44.68-50.33,80.9-112.41,80.9c-4.74,0-9.41-0.21-13.99-0.62
		c-9.39,7.53-36.32,26.14-71.42,24.33c0,0,19.48-21.37,23.89-36.89c-30.65-14.45-50.89-39.38-50.89-67.72
		c0-44.68,50.33-80.9,112.41-80.9S435.41,266.41,435.41,311.09z"/>
	<g>
		<path class="st1" d="M323.85,365.19c-5.52,0-31.81-2.47-31.81-9.57v-22.66c0-9.47,7.68-17.15,17.15-17.15h27.6
			c9.47,0,17.15,7.68,17.15,17.15c0,4.46,0,8.93,0,13.39c0,1.9,0,3.8,0,5.7c0,1.84,0.38,3.77-0.75,5.38
			c-0.64,0.91-1.54,1.61-2.47,2.19c-2.5,1.56-5.42,2.44-8.25,3.15c-5.65,1.42-11.57,2.2-17.39,2.41
			C324.67,365.18,324.26,365.19,323.85,365.19z"/>
		<circle class="st1" cx="322.99" cy="291.25" r="19.94"/>
	</g>
	<g>
		<path class="st1" d="M305.85,309.96c-11.36,2.12-20.04,12.15-20.04,24.11v12.51c-1.64,0.16-3.27,0.26-4.9,0.32
			c-0.38,0.01-0.75,0.02-1.13,0.02c-5.1,0-29.38-2.28-29.38-8.84v-20.93c0-8.75,7.09-15.84,15.84-15.84h25.49
			C297.89,301.32,303.23,304.83,305.85,309.96z"/>
		<circle class="st1" cx="279.02" cy="278.14" r="18.91"/>
	</g>
	<g>
		<path class="st1" d="M394.48,339.75c-0.59,0.84-1.42,1.48-2.28,2.02c-2.3,1.44-5,2.25-7.62,2.91c-5.22,1.31-10.68,2.03-16.07,2.22
			c-0.38,0.01-0.75,0.02-1.13,0.02c-1.33,0-3.98-0.15-7.16-0.5v-12.35c0-12.11-8.89-22.23-20.46-24.18
			c2.63-5.09,7.95-8.57,14.08-8.57h25.49c8.75,0,15.84,7.09,15.84,15.84v17.63C395.18,336.49,395.52,338.26,394.48,339.75z"/>
		<circle class="st1" cx="366.62" cy="278.14" r="18.91"/>
	</g>
</g>
</svg>
