<?xml version="1.0" encoding="utf-8"?>
<!-- Generator: Adobe Illustrator 24.3.0, SVG Export Plug-In . SVG Version: 6.00 Build 0)  -->
<svg version="1.1" id="Layer_1" xmlns="http://www.w3.org/2000/svg" xmlns:xlink="http://www.w3.org/1999/xlink" x="0px" y="0px"
	 viewBox="0 0 646 646" style="enable-background:new 0 0 646 646;" xml:space="preserve">
<style type="text/css">
	.st0{fill:#FFFFFF;stroke:#000000;stroke-miterlimit:10;}
	.st1{fill:#231F20;}
	.st2{fill:#FFFFFF;stroke:#231F20;stroke-width:3.5558;stroke-miterlimit:10;}
</style>
<rect x="-0.5" y="0.5" class="st0" width="646" height="646"/>
<g>
	<g>
		<circle class="st1" cx="304.98" cy="222.22" r="98.83"/>
		<path class="st1" d="M462.98,489.51h-316c0-87.27,70.74-158,158-158S462.98,402.25,462.98,489.51z"/>
	</g>
	<g>
		<g>
			<circle class="st2" cx="411.66" cy="418.36" r="86.85"/>
		</g>
		<g>
			<g>
				<g>
					<path d="M456.57,445.65l-14.52-14.52c-2.89-2.88-7.68-2.79-10.68,0.2l-7.32,7.31c-0.46-0.25-0.94-0.52-1.44-0.8
						c-4.62-2.56-10.94-6.07-17.6-12.73c-6.67-6.67-10.19-13.01-12.75-17.63c-0.27-0.49-0.53-0.96-0.79-1.41l4.91-4.9l2.41-2.42
						c3-3,3.08-7.79,0.19-10.68l-14.52-14.53c-2.89-2.89-7.68-2.8-10.68,0.2l-4.09,4.12l0.11,0.11c-1.37,1.75-2.52,3.77-3.37,5.95
						c-0.79,2.07-1.28,4.05-1.5,6.03c-1.92,15.9,5.35,30.43,25.06,50.14c27.25,27.25,49.21,25.19,50.16,25.09
						c2.06-0.25,4.04-0.74,6.05-1.52c2.16-0.84,4.18-1.99,5.93-3.36l0.09,0.08l4.15-4.06C459.37,453.34,459.45,448.55,456.57,445.65
						z"/>
				</g>
			</g>
		</g>
	</g>
</g>
</svg>
