<?xml version="1.0" encoding="utf-8"?>
<!-- Generator: Adobe Illustrator 24.3.0, SVG Export Plug-In . SVG Version: 6.00 Build 0)  -->
<svg version="1.1" id="Layer_1" xmlns="http://www.w3.org/2000/svg" xmlns:xlink="http://www.w3.org/1999/xlink" x="0px" y="0px"
	 viewBox="0 0 646 646" style="enable-background:new 0 0 646 646;" xml:space="preserve">
<style type="text/css">
	.st0{fill:#231F20;}
</style>
<g>
	<path class="st0" d="M295.93,332.4v89.96c0,6.69-5.42,12.11-12.11,12.11c-6.69,0-12.11-5.42-12.11-12.11
		c0,6.69-5.44,12.11-12.11,12.11c-6.69,0-12.13-5.42-12.13-12.11V332.4c0-6.69,5.44-12.11,12.13-12.11c3.33,0,6.35,1.35,8.55,3.55
		c2.21,2.18,3.55,5.22,3.55,8.55c0-6.69,5.42-12.11,12.11-12.11c3.36,0,6.37,1.35,8.55,3.55
		C294.59,326.03,295.93,329.07,295.93,332.4z"/>
	<path class="st0" d="M344.98,290.05c0,2.45-1.25,4.73-3.33,6l-44.94,27.72c-0.44,0.27-0.74,0.76-0.74,1.27v13.4
		c0,1.15-1.18,1.89-2.18,1.35l-2.13-1.18v27.08c0,7.65-6.2,13.85-13.85,13.85h-30.26c-7.65,0-13.85-6.2-13.85-13.85v-51.46
		c0-2.89,0.88-5.59,2.43-7.82c0-0.02,0.02-0.02,0.02-0.05c4.63-7.96,14.95-10.39,23.38-10.27c24.33,0.34,54.54-1.86,75.59-15.56
		c0.42-0.29,0.93-0.32,1.37-0.12l4.42,3.21C343.38,284.76,344.98,287.28,344.98,290.05z"/>
	<circle class="st0" cx="271.71" cy="264.68" r="19.42"/>
	<rect x="334.68" y="211.53" class="st0" width="6.7" height="222.93"/>
	<path class="st0" d="M341.38,214.78c-0.12,5.42,9.11,7.08,12.74,7.56c6.98,0.92,14.21-0.25,21.28-0.16
		c12.31,0.16,26.73,2.01,36.91,9.68c0,0-12.85,8.62-18.01,14.65c-1.21,1.41-1.06,3.51,0.3,4.78c4.13,3.85,12.67,12.97,12.67,22.59
		c0-0.6-8.69-2.42-9.35-2.67c-26.91-10.16-39.26,3.01-57.61-6.53L341.38,214.78z"/>
</g>
</svg>
