<?xml version="1.0" encoding="utf-8"?>
<!-- Generator: Adobe Illustrator 24.3.0, SVG Export Plug-In . SVG Version: 6.00 Build 0)  -->
<svg version="1.1" id="Layer_1" xmlns="http://www.w3.org/2000/svg" xmlns:xlink="http://www.w3.org/1999/xlink" x="0px" y="0px"
	 viewBox="0 0 646 646" style="enable-background:new 0 0 646 646;" xml:space="preserve">
<style type="text/css">
	.st0{fill:#FFFFFF;stroke:#000000;stroke-miterlimit:10;}
	.st1{fill:#231F20;}
</style>
<rect x="0.12" y="-0.4" class="st0" width="646" height="646"/>
<g>
	<g>
		<path class="st1" d="M357.16,527.25H111.03c-16.11,0-29.17-13.06-29.17-29.17v-65.05c0-60.23,48.83-109.06,109.06-109.06h86.35
			c60.23,0,109.06,48.83,109.06,109.06v65.05C386.33,514.19,373.27,527.25,357.16,527.25z"/>
		<circle class="st1" cx="234.1" cy="229.84" r="72.69"/>
	</g>
	<g>
		<path d="M564.38,363.71v49.12c0,13.87-11.24,25.11-25.1,25.11H416.69v-32.47c0-54.63-44.24-98.87-98.79-98.87h-6.66
			c17.12-22.39,44.09-36.73,74.38-36.73h84.92C522.38,269.88,564.38,311.88,564.38,363.71z"/>
		<circle class="st1" cx="428.09" cy="186.1" r="68.15"/>
	</g>
</g>
</svg>
