<?xml version="1.0" encoding="utf-8"?>
<!-- Generator: Adobe Illustrator 24.3.0, SVG Export Plug-In . SVG Version: 6.00 Build 0)  -->
<svg version="1.1" id="Layer_1" xmlns="http://www.w3.org/2000/svg" xmlns:xlink="http://www.w3.org/1999/xlink" x="0px" y="0px"
	 viewBox="0 0 646 646" style="enable-background:new 0 0 646 646;" xml:space="preserve">
<style type="text/css">
	.st0{fill:#FFFFFF;stroke:#000000;stroke-width:0.9992;stroke-miterlimit:10;}
	.st1{fill:#231F20;}
</style>
<rect x="0.4" y="-0.35" class="st0" width="646" height="646"/>
<g>
	<g>
		<path d="M335.09,320.73h-23.37c-3.23,0-5.84,2.62-5.84,5.84c0,3.23,2.62,5.84,5.84,5.84h23.37c3.23,0,5.84-2.62,5.84-5.84
			C340.93,323.35,338.31,320.73,335.09,320.73z"/>
		<path d="M340.93,303.2h-35.06c-3.23,0-5.84,2.62-5.84,5.84c0,3.23,2.62,5.84,5.84,5.84h35.06c3.23,0,5.84-2.62,5.84-5.84
			C346.77,305.82,344.16,303.2,340.93,303.2z"/>
		<path d="M364.82,174.19c-10.98-11-25.69-17.05-41.42-17.05c-32.19-0.08-58.35,25.96-58.43,58.15c0,0.09,0,0.19,0,0.28
			c0,17.02,6.53,32.95,17.89,43.69l1.59,1.49c6.58,6.15,15.57,14.57,15.57,22.01v8.76c0,3.23,2.62,5.84,5.84,5.84h8.76
			c1.61,0,2.92-1.31,2.92-2.92v-42.79c0-1.21-0.74-2.29-1.87-2.73c-3.37-1.38-6.58-3.13-9.55-5.24c-2.72-1.74-3.52-5.35-1.78-8.07
			c1.74-2.72,5.35-3.52,8.07-1.78c0.17,0.11,0.34,0.23,0.5,0.35c2.7,1.91,7.91,4.75,10.48,4.75c2.58,0,7.78-2.84,10.49-4.75
			c2.73-1.72,6.34-0.9,8.06,1.84c1.58,2.51,1.03,5.8-1.28,7.66c-2.97,2.1-6.18,3.86-9.55,5.23c-1.13,0.43-1.87,1.52-1.87,2.73v42.8
			c0,1.61,1.31,2.92,2.92,2.92h8.76c3.23,0,5.84-2.62,5.84-5.84v-8.76c0-7.26,8.9-15.68,15.39-21.83l1.79-1.7
			c11.69-11.16,17.87-26.28,17.87-43.66C381.91,200.05,375.78,185.16,364.82,174.19z"/>
	</g>
	<g>
		<path class="st1" d="M390.29,548.35H257.18c-8.71,0-15.78-7.06-15.78-15.78V497.4c0-32.57,26.41-58.98,58.98-58.98h46.7
			c32.57,0,58.98,26.41,58.98,58.98v35.18C406.07,541.29,399,548.35,390.29,548.35z"/>
		<circle class="st1" cx="323.73" cy="387.51" r="39.31"/>
	</g>
	<g>
		<path d="M281.35,429.03h-3.6c-29.5,0-53.43,23.93-53.43,53.47v17.56h-66.29c-7.5,0-13.58-6.08-13.58-13.58v-26.57
			c0-28.03,22.71-50.75,50.75-50.75h45.93C257.5,409.16,272.05,416.92,281.35,429.03z"/>
		<circle class="st1" cx="218.13" cy="363.85" r="36.86"/>
	</g>
	<g>
		<path d="M502.36,459.91v26.57c0,7.5-6.08,13.58-13.58,13.58h-66.29V482.5c0-29.54-23.93-53.47-53.43-53.47h-3.6
			c9.26-12.11,23.84-19.86,40.23-19.86h45.93C479.65,409.16,502.36,431.88,502.36,459.91z"/>
		<circle class="st1" cx="428.65" cy="363.85" r="36.86"/>
	</g>
	<g>
		<path d="M386.28,159.6c1-0.15,1.97-0.6,2.81-1.38l13.1-12.12c2.54-2.35,2.87-6.77,0.75-9.87c-2.13-3.1-5.91-3.71-8.45-1.36
			l-13.1,12.12c-2.54,2.35-2.87,6.77-0.75,9.87C382.07,158.95,384.24,159.91,386.28,159.6z"/>
		<path d="M406,285.04l-14.96-13.49c-2.9-2.61-7.37-2.38-9.99,0.52c-2.61,2.9-2.38,7.37,0.52,9.98l14.96,13.49
			c0.95,0.86,2.08,1.41,3.25,1.66c2.39,0.51,4.98-0.23,6.73-2.18C409.13,292.13,408.9,287.66,406,285.04z"/>
		<path d="M254.5,271.58l-15.1,13.33c-2.93,2.59-3.2,7.05-0.62,9.98c1.73,1.96,4.31,2.73,6.71,2.25c1.18-0.24,2.31-0.78,3.27-1.63
			l15.1-13.33c2.93-2.58,3.2-7.05,0.62-9.98C261.89,269.28,257.42,269,254.5,271.58z"/>
		<path d="M262.03,147.09l-12.98-12.25c-2.52-2.37-6.31-1.8-8.47,1.28c-2.16,3.08-1.87,7.51,0.65,9.88l12.98,12.25
			c0.83,0.78,1.8,1.24,2.8,1.4c2.04,0.32,4.22-0.61,5.67-2.68C264.84,153.89,264.55,149.47,262.03,147.09z"/>
		<path d="M229.44,207.11l-17.84,0.54c-3.46,0.11-5.73,3.19-5.07,6.9c0.66,3.7,4,6.62,7.46,6.52l17.84-0.54
			c1.14-0.04,2.15-0.39,2.97-0.99c1.67-1.22,2.55-3.42,2.1-5.91C236.24,209.92,232.9,207,229.44,207.11z"/>
		<path d="M427.36,207.11l-17.84,0.54c-3.46,0.11-5.73,3.19-5.07,6.9c0.66,3.7,4,6.62,7.46,6.52l17.84-0.54
			c1.14-0.04,2.15-0.39,2.97-0.99c1.67-1.22,2.55-3.42,2.1-5.91C434.16,209.92,430.82,207,427.36,207.11z"/>
		<path d="M321.69,131.21c3.91,0,7.07-3.16,7.07-7.07v-20.14c0-3.91-3.17-7.07-7.07-7.07s-7.07,3.16-7.07,7.07v20.14
			C314.62,128.05,317.78,131.21,321.69,131.21z"/>
	</g>
</g>
</svg>
