<?xml version="1.0" encoding="utf-8"?>
<!-- Generator: Adobe Illustrator 24.3.0, SVG Export Plug-In . SVG Version: 6.00 Build 0)  -->
<svg version="1.1" id="Layer_1" xmlns="http://www.w3.org/2000/svg" xmlns:xlink="http://www.w3.org/1999/xlink" x="0px" y="0px"
	 viewBox="0 0 1080 1080" style="enable-background:new 0 0 1080 1080;" xml:space="preserve">
<style type="text/css">
	.st0{fill:#FFFFFF;}
</style>
<rect x="211.97" y="223.61" class="st0" width="646" height="646"/>
<g>
	<path d="M713.63,798H567.22c-19.67,0-30.43-11.56-30.29-29.77c0.08-11.07,9.31-19.83,20.18-19.83h114.83c3.6,0,6.91-2.52,7.47-6.14
		c0.71-4.62-2.76-8.59-7.12-8.59H546.98c1.8-3.5,3.89-7.09,6.23-10.76l29.09-45.47c4.18-5.09,10.33-8.05,16.84-8.05h69.33
		c6.39,0,12.46,2.88,16.64,7.8l54.05,64.37C757.77,763.75,742.28,798,713.63,798z"/>
	<path d="M650.67,639.32c11.73-1.04,20.19-2.38,26.24-3.74c-10.64,13.19-27.18,21.46-45.61,20.81
		c-28.49-1.01-52.06-23.93-53.8-52.38c-1.99-32.5,23.77-59.47,55.84-59.47c13.94,0,26.7,5.1,36.51,13.55
		c-7.19,7.21-11.85,18.8-11.85,31.85c0,17.3,8.19,32.02,19.6,37.34c0,0-21.04,5.32-27.4,5.71c-1.8-3.5-6.07-5.98-11.08-5.98
		c-6.63,0-12,4.35-12,9.72c0,5.37,5.37,9.72,12,9.72C644.62,646.44,649.26,643.43,650.67,639.32z"/>
	<path d="M684.42,612.3L684.42,612.3c-9.43,0-17.15-7.72-17.15-17.15v-14.86c0-9.43,7.72-17.15,17.15-17.15l0,0
		c9.43,0,17.15,7.72,17.15,17.15v14.86C701.57,604.58,693.85,612.3,684.42,612.3z"/>
	<path d="M567.51,797.35c0,0.36-0.29,0.65-0.65,0.65l-181.04-0.44c-2.17,0-4.09-1.41-4.74-3.48l-45.31-143.73
		c-1.01-3.21,1.38-6.47,4.74-6.47h143.05c2.17,0,4.09,1.4,4.74,3.47l42.81,134.95c0.66,2.07,2.57,3.47,4.74,3.47h20.08
		C562.3,785.77,567.51,790.98,567.51,797.35L567.51,797.35z"/>
	<g>
		<g>
			<path d="M561.49,475.78c0,49.19-45.18,89.83-103.73,96.05l-13.56,18.53c-1.02,1.38-3.09,1.29-3.98-0.17l-10.96-18.1
				c-59.93-5.17-106.59-46.35-106.59-96.32c0-53.49,53.47-96.88,119.42-96.88S561.49,422.29,561.49,475.78z"/>
			<g>
				<circle class="st0" cx="394.07" cy="475.25" r="14.04"/>
				<circle class="st0" cx="440" cy="475.25" r="14.04"/>
				<circle class="st0" cx="490.1" cy="475.25" r="14.04"/>
			</g>
		</g>
		<g>
			<path d="M746.89,392.1c0,49.19-45.18,89.83-103.73,96.05l-13.56,18.53c-1.02,1.38-3.09,1.29-3.98-0.17l-10.96-18.1
				c-13.07-1.14-25.53-3.98-37-8.26c0.27-2.87,0.41-5.76,0.41-8.67c0-42.54-28.88-78.68-69.06-91.7
				c7.46-47.69,57.67-84.56,118.47-84.56C693.45,295.22,746.89,338.6,746.89,392.1z"/>
			<g>
				<circle class="st0" cx="579.46" cy="391.56" r="14.04"/>
				<circle class="st0" cx="625.4" cy="391.56" r="14.04"/>
				<circle class="st0" cx="675.5" cy="391.56" r="14.04"/>
			</g>
		</g>
	</g>
</g>
</svg>
