<?xml version="1.0" encoding="utf-8"?>
<!-- Generator: Adobe Illustrator 24.3.0, SVG Export Plug-In . SVG Version: 6.00 Build 0)  -->
<svg version="1.1" id="Layer_1" xmlns="http://www.w3.org/2000/svg" xmlns:xlink="http://www.w3.org/1999/xlink" x="0px" y="0px"
	 viewBox="0 0 646 646" style="enable-background:new 0 0 646 646;" xml:space="preserve">
<style type="text/css">
	.st0{fill:#FFFFFF;}
</style>
<g>
	<path d="M396.55,426.49h-60.27c-8.1,0-12.53-4.76-12.47-12.26c0.03-4.56,3.83-8.16,8.31-8.16h47.27c1.48,0,2.85-1.04,3.07-2.53
		c0.29-1.9-1.14-3.53-2.93-3.53h-51.58c0.74-1.44,1.6-2.92,2.56-4.43l11.98-18.72c1.72-2.1,4.25-3.31,6.93-3.31h28.54
		c2.63,0,5.13,1.18,6.85,3.21l22.25,26.5C414.72,412.39,408.34,426.49,396.55,426.49z"/>
	<path d="M370.63,361.17c4.83-0.43,8.31-0.98,10.8-1.54c-4.38,5.43-11.19,8.83-18.78,8.57c-11.73-0.42-21.43-9.85-22.15-21.56
		c-0.82-13.38,9.78-24.48,22.99-24.48c5.74,0,10.99,2.1,15.03,5.58c-2.96,2.97-4.88,7.74-4.88,13.11c0,7.12,3.37,13.18,8.07,15.37
		c0,0-8.66,2.19-11.28,2.35c-0.74-1.44-2.5-2.46-4.56-2.46c-2.73,0-4.94,1.79-4.94,4c0,2.21,2.21,4,4.94,4
		C368.14,364.1,370.05,362.86,370.63,361.17z"/>
	<path d="M384.52,350.04L384.52,350.04c-3.88,0-7.06-3.18-7.06-7.06v-6.12c0-3.88,3.18-7.06,7.06-7.06h0c3.88,0,7.06,3.18,7.06,7.06
		v6.12C391.58,346.87,388.4,350.04,384.52,350.04z"/>
	<path d="M336.39,426.22c0,0.15-0.12,0.27-0.27,0.27l-74.52-0.18c-0.89,0-1.68-0.58-1.95-1.43L241,365.7
		c-0.42-1.32,0.57-2.66,1.95-2.66h58.89c0.89,0,1.68,0.58,1.95,1.43l17.62,55.55c0.27,0.85,1.06,1.43,1.95,1.43h8.27
		C334.25,421.45,336.39,423.6,336.39,426.22L336.39,426.22z"/>
	<g>
		<g>
			<path d="M333.92,293.84c0,20.25-18.6,36.98-42.7,39.54l-5.58,7.63c-0.42,0.57-1.27,0.53-1.64-0.07l-4.51-7.45
				c-24.67-2.13-43.88-19.08-43.88-39.65c0-22.02,22.01-39.88,49.16-39.88S333.92,271.82,333.92,293.84z"/>
			<g>
				<circle class="st0" cx="264.99" cy="293.63" r="5.78"/>
				<circle class="st0" cx="283.9" cy="293.63" r="5.78"/>
				<circle class="st0" cx="304.53" cy="293.63" r="5.78"/>
			</g>
		</g>
		<g>
			<path d="M410.24,259.39c0,20.25-18.6,36.98-42.7,39.54l-5.58,7.63c-0.42,0.57-1.27,0.53-1.64-0.07l-4.51-7.45
				c-5.38-0.47-10.51-1.64-15.23-3.4c0.11-1.18,0.17-2.37,0.17-3.57c0-17.51-11.89-32.39-28.43-37.75
				c3.07-19.63,23.74-34.81,48.77-34.81C388.24,219.51,410.24,237.37,410.24,259.39z"/>
			<g>
				<circle class="st0" cx="341.31" cy="259.17" r="5.78"/>
				<circle class="st0" cx="360.22" cy="259.17" r="5.78"/>
				<circle class="st0" cx="380.85" cy="259.17" r="5.78"/>
			</g>
		</g>
	</g>
</g>
</svg>
