<?xml version="1.0" encoding="utf-8"?>
<!-- Generator: Adobe Illustrator 24.3.0, SVG Export Plug-In . SVG Version: 6.00 Build 0)  -->
<svg version="1.1" id="Layer_1" xmlns="http://www.w3.org/2000/svg" xmlns:xlink="http://www.w3.org/1999/xlink" x="0px" y="0px"
	 viewBox="0 0 646 646" style="enable-background:new 0 0 646 646;" xml:space="preserve">
<style type="text/css">
	.st0{fill:#231F20;}
	.st1{fill:#FFFFFF;stroke:#231F20;stroke-width:1.7112;stroke-miterlimit:10;}
</style>
<g>
	<g>
		<circle class="st0" cx="314.45" cy="278.69" r="47.56"/>
		<path class="st0" d="M390.49,407.32H238.42c0-42,34.04-76.04,76.04-76.04S390.49,365.32,390.49,407.32z"/>
	</g>
	<g>
		<g>
			<circle class="st1" cx="365.79" cy="373.08" r="41.79"/>
		</g>
		<g>
			<g>
				<g>
					<path d="M387.4,386.22l-6.99-6.99c-1.39-1.39-3.7-1.34-5.14,0.1l-3.52,3.52c-0.22-0.12-0.45-0.25-0.69-0.39
						c-2.22-1.23-5.27-2.92-8.47-6.13c-3.21-3.21-4.9-6.26-6.14-8.48c-0.13-0.24-0.26-0.46-0.38-0.68l2.36-2.36l1.16-1.16
						c1.44-1.44,1.48-3.75,0.09-5.14l-6.99-6.99c-1.39-1.39-3.69-1.35-5.14,0.1l-1.97,1.98l0.05,0.05
						c-0.66,0.84-1.21,1.81-1.62,2.86c-0.38,1-0.61,1.95-0.72,2.9c-0.92,7.65,2.57,14.64,12.06,24.13
						c13.11,13.11,23.68,12.12,24.14,12.07c0.99-0.12,1.94-0.36,2.91-0.73c1.04-0.41,2.01-0.96,2.85-1.62l0.04,0.04l2-1.95
						C388.75,389.91,388.79,387.61,387.4,386.22z"/>
				</g>
			</g>
		</g>
	</g>
</g>
</svg>
