<?xml version="1.0" encoding="utf-8"?>
<!-- Generator: Adobe Illustrator 24.3.0, SVG Export Plug-In . SVG Version: 6.00 Build 0)  -->
<svg version="1.1" id="Layer_1" xmlns="http://www.w3.org/2000/svg" xmlns:xlink="http://www.w3.org/1999/xlink" x="0px" y="0px"
	 viewBox="0 0 646 646" style="enable-background:new 0 0 646 646;" xml:space="preserve">
<style type="text/css">
	.st0{fill:#231F20;}
</style>
<g>
	<g>
		<path d="M328.64,322.08h-11.28c-1.56,0-2.82,1.26-2.82,2.82s1.26,2.82,2.82,2.82h11.28c1.56,0,2.82-1.26,2.82-2.82
			S330.2,322.08,328.64,322.08z"/>
		<path d="M331.46,313.61h-16.92c-1.56,0-2.82,1.26-2.82,2.82c0,1.56,1.26,2.82,2.82,2.82h16.92c1.56,0,2.82-1.26,2.82-2.82
			C334.28,314.88,333.02,313.61,331.46,313.61z"/>
		<path d="M342.99,251.33c-5.3-5.31-12.4-8.23-19.99-8.23c-15.54-0.04-28.17,12.53-28.21,28.07c0,0.04,0,0.09,0,0.13
			c0,8.22,3.15,15.91,8.64,21.09l0.77,0.72c3.17,2.97,7.52,7.04,7.52,10.62v4.23c0,1.56,1.26,2.82,2.82,2.82h4.23
			c0.78,0,1.41-0.63,1.41-1.41v-20.66c0-0.58-0.36-1.11-0.9-1.32c-1.63-0.66-3.18-1.51-4.61-2.53c-1.31-0.84-1.7-2.58-0.86-3.9
			s2.58-1.7,3.9-0.86c0.08,0.05,0.16,0.11,0.24,0.17c1.3,0.92,3.82,2.29,5.06,2.29c1.24,0,3.76-1.37,5.06-2.29
			c1.32-0.83,3.06-0.43,3.89,0.89c0.76,1.21,0.5,2.8-0.62,3.7c-1.44,1.01-2.98,1.86-4.61,2.52c-0.54,0.21-0.9,0.73-0.9,1.32v20.66
			c0,0.78,0.63,1.41,1.41,1.41h4.23c1.56,0,2.82-1.26,2.82-2.82v-4.23c0-3.5,4.29-7.57,7.43-10.54l0.87-0.82
			c5.64-5.39,8.63-12.69,8.63-21.08C351.24,263.82,348.29,256.63,342.99,251.33z"/>
	</g>
	<g>
		<path class="st0" d="M355.29,431.96h-64.26c-4.21,0-7.62-3.41-7.62-7.62v-16.98c0-15.73,12.75-28.47,28.47-28.47h22.54
			c15.73,0,28.47,12.75,28.47,28.47v16.98C362.91,428.55,359.5,431.96,355.29,431.96z"/>
		<circle class="st0" cx="323.16" cy="354.31" r="18.98"/>
	</g>
	<g>
		<path d="M302.7,374.36h-1.74c-14.24,0-25.79,11.55-25.79,25.81v8.48h-32c-3.62,0-6.55-2.93-6.55-6.55v-12.83
			c0-13.53,10.96-24.5,24.5-24.5h22.17C291.19,364.77,298.21,368.51,302.7,374.36z"/>
		<circle class="st0" cx="272.18" cy="342.89" r="17.79"/>
	</g>
	<g>
		<path d="M409.39,389.26v12.83c0,3.62-2.93,6.55-6.55,6.55h-32v-8.48c0-14.26-11.55-25.81-25.79-25.81h-1.74
			c4.47-5.85,11.51-9.59,19.42-9.59h22.17C398.43,364.77,409.39,375.73,409.39,389.26z"/>
		<circle class="st0" cx="373.81" cy="342.89" r="17.79"/>
	</g>
	<g>
		<path d="M353.36,244.29c0.48-0.07,0.95-0.29,1.36-0.66l6.32-5.85c1.23-1.14,1.39-3.27,0.36-4.77c-1.03-1.5-2.85-1.79-4.08-0.66
			l-6.32,5.85c-1.23,1.13-1.39,3.27-0.36,4.77C351.32,243.97,352.37,244.44,353.36,244.29z"/>
		<path d="M362.87,304.85l-7.22-6.51c-1.4-1.26-3.56-1.15-4.82,0.25c-1.26,1.4-1.15,3.56,0.25,4.82l7.22,6.51
			c0.46,0.42,1,0.68,1.57,0.8c1.15,0.25,2.4-0.11,3.25-1.05C364.39,308.27,364.27,306.11,362.87,304.85z"/>
		<path d="M289.74,298.35l-7.29,6.43c-1.41,1.25-1.55,3.4-0.3,4.82c0.84,0.95,2.08,1.32,3.24,1.09c0.57-0.11,1.11-0.38,1.58-0.79
			l7.29-6.43c1.41-1.25,1.55-3.4,0.3-4.82C293.31,297.24,291.15,297.1,289.74,298.35z"/>
		<path d="M293.37,238.25l-6.27-5.91c-1.21-1.15-3.04-0.87-4.09,0.62c-1.04,1.49-0.9,3.62,0.31,4.77l6.27,5.91
			c0.4,0.38,0.87,0.6,1.35,0.68c0.98,0.16,2.04-0.3,2.74-1.29C294.73,241.53,294.59,239.4,293.37,238.25z"/>
		<path d="M277.64,267.23l-8.61,0.26c-1.67,0.05-2.77,1.54-2.45,3.33c0.32,1.79,1.93,3.2,3.6,3.15l8.61-0.26
			c0.55-0.02,1.04-0.19,1.43-0.48c0.81-0.59,1.23-1.65,1.02-2.85C280.92,268.58,279.31,267.17,277.64,267.23z"/>
		<path d="M373.19,267.23l-8.61,0.26c-1.67,0.05-2.77,1.54-2.45,3.33c0.32,1.79,1.93,3.2,3.6,3.15l8.61-0.26
			c0.55-0.02,1.04-0.19,1.43-0.48c0.81-0.59,1.23-1.65,1.02-2.85C376.47,268.58,374.86,267.17,373.19,267.23z"/>
		<path d="M322.17,230.59c1.89,0,3.41-1.53,3.41-3.41v-9.72c0-1.89-1.53-3.41-3.41-3.41c-1.89,0-3.41,1.53-3.41,3.41v9.72
			C318.76,229.06,320.29,230.59,322.17,230.59z"/>
	</g>
</g>
</svg>
