<?xml version="1.0" encoding="utf-8"?>
<!-- Generator: Adobe Illustrator 24.3.0, SVG Export Plug-In . SVG Version: 6.00 Build 0)  -->
<svg version="1.1" id="Layer_1" xmlns="http://www.w3.org/2000/svg" xmlns:xlink="http://www.w3.org/1999/xlink" x="0px" y="0px"
	 viewBox="0 0 646 646" style="enable-background:new 0 0 646 646;" xml:space="preserve">
<style type="text/css">
	.st0{fill:#FFFFFF;}
	.st1{fill:#231F20;}
</style>
<rect x="-0.27" y="0.27" class="st0" width="646" height="646"/>
<g>
	<path class="st1" d="M253.47,347.32v230.21c0,17.12-13.86,30.98-30.98,30.98c-17.12,0-30.98-13.86-30.98-30.98
		c0,17.12-13.92,30.98-30.98,30.98c-17.12,0-31.04-13.86-31.04-30.98V347.32c0-17.12,13.92-30.98,31.04-30.98
		c8.53,0,16.24,3.45,21.89,9.09c5.64,5.58,9.09,13.36,9.09,21.89c0-17.12,13.86-30.98,30.98-30.98c8.59,0,16.3,3.45,21.89,9.09
		C250.02,331.02,253.47,338.79,253.47,347.32z"/>
	<path class="st1" d="M378.97,238.96c0,6.27-3.2,12.1-8.53,15.36l-115.01,70.93c-1.13,0.69-1.88,1.94-1.88,3.26v34.3
		c0,2.95-3.01,4.83-5.58,3.45l-5.46-3.01v69.3c0,19.57-15.87,35.43-35.43,35.43h-77.45c-19.57,0-35.43-15.87-35.43-35.43V300.85
		c0-7.4,2.26-14.3,6.21-20c0-0.06,0.06-0.06,0.06-0.13c11.85-20.38,38.25-26.59,59.83-26.28c62.27,0.88,139.56-4.77,193.43-39.83
		c1.07-0.75,2.38-0.82,3.51-0.31l11.32,8.22C374.89,225.41,378.97,231.87,378.97,238.96z"/>
	<circle class="st1" cx="191.48" cy="174.03" r="49.69"/>
	<rect x="352.62" y="38.02" class="st1" width="17.15" height="570.49"/>
	<path class="st1" d="M369.77,46.32c-0.3,13.88,23.3,18.12,32.59,19.35c17.86,2.35,36.37-0.63,54.45-0.4
		c31.51,0.4,68.41,5.15,94.45,24.77c0,0-32.9,22.06-46.08,37.5c-3.09,3.61-2.71,8.98,0.76,12.22c10.56,9.84,32.41,33.19,32.41,57.81
		c0-1.54-22.23-6.19-23.92-6.83c-68.85-26-100.48,7.71-147.43-16.71L369.77,46.32z"/>
</g>
</svg>
