<?xml version="1.0" encoding="utf-8"?>
<!-- Generator: Adobe Illustrator 24.3.0, SVG Export Plug-In . SVG Version: 6.00 Build 0)  -->
<svg version="1.1" id="Layer_1" xmlns="http://www.w3.org/2000/svg" xmlns:xlink="http://www.w3.org/1999/xlink" x="0px" y="0px"
	 viewBox="0 0 646 646" style="enable-background:new 0 0 646 646;" xml:space="preserve">
<style type="text/css">
	.st0{fill:#FFFFFF;stroke:#000000;stroke-width:0.9985;stroke-miterlimit:10;}
	.st1{fill:#231F20;}
	.st2{fill:#FFFFFF;}
</style>
<rect class="st0" width="646" height="646"/>
<g>
	<path class="st1" d="M521,288.7c0,80.92-91.15,146.52-203.59,146.52c-8.58,0-17.04-0.38-25.34-1.13
		c-17.01,13.64-65.78,47.34-129.34,44.06c0,0,35.28-38.71,43.27-66.8c-55.51-26.17-92.17-71.32-92.17-122.65
		c0-80.92,91.15-146.52,203.59-146.52S521,207.78,521,288.7z"/>
	<g>
		<path class="st2" d="M318.95,386.69c-10,0-57.61-4.48-57.61-17.33v-41.05c0-17.15,13.91-31.06,31.06-31.06h49.99
			c17.15,0,31.06,13.91,31.06,31.06c0,8.08,0,16.17,0,24.25c0,3.44,0,6.88,0,10.32c0,3.34,0.68,6.82-1.36,9.74
			c-1.15,1.64-2.79,2.91-4.48,3.96c-4.52,2.82-9.81,4.41-14.94,5.7c-10.24,2.57-20.95,3.98-31.5,4.36
			C320.43,386.67,319.69,386.69,318.95,386.69z"/>
		<circle class="st2" cx="317.4" cy="252.77" r="36.12"/>
	</g>
	<g>
		<path class="st2" d="M286.36,286.66c-20.58,3.84-36.29,22.01-36.29,43.66v22.66c-2.96,0.29-5.93,0.48-8.88,0.58
			c-0.68,0.02-1.36,0.04-2.05,0.04c-9.24,0-53.21-4.14-53.21-16v-37.91c0-15.84,12.85-28.68,28.69-28.68h46.17
			C271.94,271,281.61,277.37,286.36,286.66z"/>
		<circle class="st2" cx="237.75" cy="229.03" r="34.25"/>
	</g>
	<g>
		<path class="st2" d="M446.87,340.61c-1.06,1.52-2.58,2.69-4.14,3.66c-4.17,2.61-9.06,4.08-13.8,5.27
			c-9.46,2.37-19.35,3.68-29.1,4.02c-0.68,0.02-1.36,0.04-2.05,0.04c-2.42,0-7.21-0.28-12.97-0.91v-22.38
			c0-21.93-16.09-40.27-37.05-43.8c4.77-9.22,14.4-15.52,25.5-15.52h46.17c15.84,0,28.69,12.84,28.69,28.68v31.93
			C448.13,334.7,448.76,337.92,446.87,340.61z"/>
		<circle class="st2" cx="396.41" cy="229.03" r="34.25"/>
	</g>
</g>
</svg>
